<svg width="120" height="120" viewBox="0 0 120 120" fill="none" xmlns="http://www.w3.org/2000/svg">
<rect width="120" height="120" rx="60" fill="#0A173A"/>
<g clip-path="url(#clip0_3539_8283)">
<path d="M409.972 92.3641C405.312 89.8774 401.43 86.1541 398.752 81.6041C396.084 76.8787 394.685 71.543 394.692 66.1169C394.7 60.6908 396.114 55.3591 398.795 50.6411C401.498 46.0942 405.394 42.3732 410.062 39.8811C414.991 37.2549 420.507 35.922 426.092 36.0075C430.598 35.9514 435.069 36.8064 439.236 38.521C443.109 40.1281 446.55 42.6209 449.284 45.7991L442.251 52.4101C440.288 50.208 437.873 48.4552 435.171 47.2712C432.468 46.0872 429.542 45.4999 426.591 45.5495C422.825 45.4872 419.105 46.3943 415.79 48.1835C412.668 49.8778 410.084 52.4126 408.331 55.5003C406.572 58.7665 405.651 62.4177 405.651 66.1269C405.651 69.836 406.572 73.4873 408.331 76.7535C410.084 79.8409 412.668 82.3756 415.79 84.0702C419.105 85.8595 422.825 86.7666 426.591 86.7043C429.55 86.7503 432.482 86.1529 435.186 84.9534C437.89 83.7538 440.301 81.981 442.251 79.7576L449.284 86.4504C446.54 89.6357 443.083 92.1292 439.193 93.7284C435.01 95.4386 430.525 96.2919 426.006 96.2377C420.419 96.3233 414.902 94.9905 409.972 92.3641ZM339.594 92.3641C334.903 89.8719 330.99 86.1335 328.289 81.561C325.6 76.8595 324.185 71.538 324.185 66.1226C324.185 60.7072 325.6 55.3856 328.289 50.6842C330.99 46.1138 334.903 42.3782 339.594 39.8897C344.594 37.3352 350.129 36.0032 355.745 36.0032C361.36 36.0032 366.895 37.3352 371.895 39.8897C376.579 42.3734 380.49 46.0956 383.201 50.6497C385.89 55.3669 387.303 60.7023 387.303 66.1312C387.303 71.5601 385.89 76.8955 383.201 81.6127C380.489 86.1664 376.579 89.8885 371.895 92.3727C366.895 94.9262 361.36 96.2576 355.745 96.2576C350.13 96.2576 344.595 94.9262 339.594 92.3727V92.3641ZM345.193 48.1835C342.101 49.9073 339.549 52.4571 337.824 55.5477C336.066 58.7993 335.145 62.4373 335.145 66.1334C335.145 69.8295 336.066 73.4674 337.824 76.719C339.55 79.8093 342.101 82.359 345.193 84.0831C348.441 85.8141 352.064 86.7195 355.745 86.7195C359.425 86.7195 363.049 85.8141 366.297 84.0831C369.389 82.3592 371.94 79.8094 373.665 76.719C375.425 73.4676 376.346 69.8296 376.346 66.1334C376.346 62.4371 375.425 58.799 373.665 55.5477C371.941 52.457 369.389 49.9071 366.297 48.1835C363.048 46.4511 359.423 45.5449 355.741 45.5449C352.059 45.5449 348.433 46.4511 345.185 48.1835H345.193ZM259.2 95.4199V36.8425H284.821C290.584 36.7335 296.292 37.9808 301.484 40.4837C306.167 42.751 310.094 46.3252 312.789 50.7745C315.425 55.4634 316.809 60.751 316.809 66.1291C316.809 71.5071 315.425 76.7947 312.789 81.4836C310.094 85.9328 306.167 89.5071 301.484 91.7744C296.292 94.2767 290.584 95.524 284.821 95.4156L259.2 95.4199ZM270.083 86.2136H284.295C288.22 86.2967 292.109 85.4501 295.644 83.7432C298.8 82.2017 301.424 79.7545 303.181 76.7147C304.912 73.4547 305.818 69.82 305.818 66.1291C305.818 62.4381 304.912 58.8034 303.181 55.5434C301.424 52.5035 298.8 50.0564 295.644 48.5149C292.109 46.8094 288.22 45.9643 284.295 46.0487H270.083V86.2136ZM203.095 95.4199V36.8425H245.875V45.9627H213.979V61.1988H242.278V70.1511H213.979V86.2997H247.055V95.4199H203.095ZM152.938 95.4199V36.8425H163.826V86.2136H194.469V95.4199H152.938ZM96.8383 95.4199V36.8425H139.618V45.9627H107.722V61.1988H136.021V70.1511H107.722V86.2997H140.798V95.4199H96.8383ZM58.3228 95.4199V46.0487H-1281.4V37.3504L88.651 36.8425V46.0487H69.2233V95.4199H58.3228Z" fill="#FAFAFA"/>
</g>
<defs>
<clipPath id="clip0_3539_8283">
<rect width="73" height="60" fill="white" transform="translate(16 36)"/>
</clipPath>
</defs>
</svg>
